<?xml version="1.0" encoding="UTF-8"?>
<svg width="563px" height="80px" viewBox="0 0 563 80" version="1.1" xmlns="http://www.w3.org/2000/svg" xmlns:xlink="http://www.w3.org/1999/xlink">
    <title>Brand/Logo/Border/Sky News Relfection</title>
    <defs>
        <rect id="path-1" x="0" y="0" width="563" height="80" rx="6"></rect>
        <polygon id="path-3" points="0 0 0 80 205 80 205 0.0055238446 205 0"></polygon>
        <path d="M68.8768493,12.8669622 C70.3756149,12.8669622 72.4163694,13.2306732 73.251475,13.4847226 L73.251475,13.4847226 L86.2131239,34.4154684 L92.8202281,18.9513538 C95.0729852,13.6272826 98.5940703,13.0954238 101.215527,13.1411162 C102.745632,13.17767 104.607568,13.6748027 105.450047,14.1244153 L105.450047,14.1244153 L85.0425014,59.2556506 C83.5050223,62.6332281 81.4273978,64.0789337 77.6279441,63.9966875 C75.40837,63.9363736 73.642297,63.4099979 72.7850695,62.9731791 L72.7850695,62.9731791 L81.4273978,44.8954628 L67.2398213,22.8224086 L58.5919625,31.9078729 L70.7940894,50.1519093 C69.7838514,50.630765 67.6011473,51.22111 64.9796902,51.22111 C60.9700776,51.22111 58.501631,49.7534721 56.6286349,46.8711995 L56.6286349,46.8711995 L46.4949151,31.0561678 L59.095238,17.3923312 C61.7480346,14.5393017 64.3086562,12.8669622 68.8768493,12.8669622 Z M43.556376,7.28306304e-12 C44.3877945,7.28306304e-12 45.230274,0.0859015939 46.0100746,0.248566314 L46.0100746,45.9006943 C46.0100746,49.2289241 44.691972,51.1480023 38.1457033,51.1480023 C37.2774148,51.1480023 36.5178927,51.084033 35.7897102,50.9798545 L35.7897102,6.8483675 C35.7897102,3.49637764 36.9400542,7.28306304e-12 43.556376,7.28306304e-12 Z M30.0545815,13.7844643 C30.207592,14.4844709 30.285019,15.1479236 30.285019,15.8753456 C30.285019,21.2853184 27.4073154,22.4513868 24.6346913,22.4513868 C22.5017618,22.4513868 19.1963661,22.0584327 15.4227215,22.0584327 C11.5808674,22.0584327 9.98623984,23.1111842 9.98623984,24.394225 C9.98623984,25.7467182 11.5052839,26.3078201 13.9110515,26.7245342 L21.4417492,28.1099258 C29.178919,29.5227329 32.4935321,33.8817819 32.4935321,39.2424069 C32.4935321,45.4437709 28.4028055,49.974623 20.0978377,50.8720205 C14.07881,51.5098856 5.36642868,50.7568759 1.22961454,50.2853309 C1.07660404,49.6163951 0.956776532,48.7829669 0.956776532,48.1268249 C0.956776532,42.7022307 3.91743763,41.4630545 6.68637473,41.4630545 C9.56407832,41.4630545 14.0990885,41.9583594 17.4763806,41.9583594 C21.1799722,41.9583594 22.3137248,40.7063894 22.3137248,39.5202163 C22.3137248,37.9648491 20.8149592,37.3160179 17.9354121,36.7713653 L10.0581363,35.2671735 C3.49896312,34.0225143 0,29.5227329 0,24.7524529 C0,18.9513538 4.14050114,14.0933445 12.2887714,13.1996024 C18.4460616,12.5379773 25.9417329,13.2836763 30.0545815,13.7844643 Z M395.098012,13.8381985 C397.667851,13.8381985 400.01647,14.3042603 402.151243,15.236384 C404.287859,16.1703354 406.114768,17.44241 407.633812,19.0562634 C409.151013,20.6701167 410.338227,22.570918 411.18808,24.7586671 C412.037934,26.9464162 412.461939,29.3132792 412.461939,31.8592563 C412.461939,34.407061 412.037934,36.7830625 411.18808,38.9890886 C410.338227,41.1951146 409.151013,43.130642 407.633812,44.7993262 C406.114768,46.4661826 404.287859,47.7766389 402.151243,48.7270395 C400.01647,49.6756124 397.667851,50.1526404 395.098012,50.1526404 C392.530016,50.1526404 390.17771,49.6756124 388.042937,48.7270395 C385.910007,47.7766389 384.083099,46.4661826 382.562211,44.7993262 C381.043167,43.130642 379.85964,41.1951146 379.009787,38.9890886 C378.159933,36.7830625 377.732241,34.407061 377.732241,31.8592563 C377.732241,29.3498331 378.159933,26.9921085 379.009787,24.7860825 C379.85964,22.5800564 381.043167,20.6701167 382.562211,19.0562634 C384.083099,17.44241 385.910007,16.1703354 388.042937,15.236384 C390.17771,14.3042603 392.530016,13.8381985 395.098012,13.8381985 Z M527.068835,14.3735299 C527.647694,14.3735299 528.208118,14.4009453 528.750107,14.4557761 C529.293939,14.5087792 529.71057,14.5709208 530,14.6422008 L530,34.9789463 C530,37.0954153 529.6737,39.0674966 529.022945,40.8970178 C528.370346,42.726539 527.430161,44.3312539 526.200546,45.7129901 C524.970932,47.0928987 523.440827,48.1785487 521.613918,48.9662845 C519.788853,49.7558481 517.718603,50.1506299 515.403167,50.1506299 C513.05086,50.1506299 510.98061,49.7558481 509.190571,48.9662845 C507.396846,48.1785487 505.888863,47.0928987 504.657405,45.7129901 C503.42779,44.3312539 502.494979,42.726539 501.862659,40.8970178 C501.230338,39.0674966 500.9151,37.0954153 500.9151,34.9789463 L500.9151,16.9030577 C500.9151,16.1847741 501.140007,15.5852907 501.591664,15.1009519 C502.045165,14.6166131 502.847088,14.3735299 504.004806,14.3735299 C504.585508,14.3735299 505.153306,14.4009453 505.715574,14.4557761 C506.277841,14.5087792 506.700003,14.5709208 506.993119,14.6422008 L506.993119,35.1397833 C506.993119,38.045816 507.724989,40.3688144 509.190571,42.1069509 C510.65431,43.8469151 512.744839,44.7168972 515.454785,44.7168972 C518.05965,44.7168972 520.131744,43.8469151 521.669223,42.1069509 C523.206702,40.3688144 523.975442,38.045816 523.975442,35.1397833 L523.975442,16.9030577 C523.975442,16.1847741 524.200349,15.5852907 524.655693,15.1009519 C525.107351,14.6166131 525.909273,14.3735299 527.068835,14.3735299 Z M364.873459,14.214155 C366.718803,14.214155 368.483032,14.393269 370.164305,14.7514969 C371.845577,15.1097248 373.445735,15.5940636 374.966622,16.2045132 C375.001649,16.4549072 375.029301,16.6797135 375.047736,16.8771044 C375.066171,17.0744953 375.075389,17.2810247 375.075389,17.4948648 C375.075389,18.6426563 374.820986,19.5400539 374.315867,20.1852297 C373.808904,20.8304055 373.176584,21.1539072 372.417062,21.1539072 C372.053892,21.1539072 371.65754,21.0826272 371.22063,20.9382394 C370.789251,20.7956793 370.289663,20.6330146 369.731082,20.4539006 C369.168815,20.2747866 368.508841,20.1139496 367.749319,19.9695618 C366.987954,19.8270017 366.103074,19.7557217 365.090992,19.7557217 C363.533235,19.7557217 362.087931,20.0499803 360.74955,20.642153 C359.409325,21.2343257 358.244233,22.0677539 357.250587,23.1442654 C356.253253,24.2207769 355.475296,25.5202669 354.916716,27.0445633 C354.354448,28.5688597 354.074236,30.2649592 354.074236,32.1292066 C354.074236,34.064734 354.354448,35.7955597 354.916716,37.3198561 C355.475296,38.8441525 356.253253,40.1363318 357.250587,41.1927386 C358.244233,42.2528008 359.409325,43.0496752 360.74955,43.5888448 C362.087931,44.1261867 363.533235,44.3948576 365.090992,44.3948576 C366.103074,44.3948576 366.98058,44.3235775 367.72351,44.1791898 C368.464597,44.0366297 369.106136,43.8757926 369.648125,43.694851 C370.191957,43.515737 370.66205,43.3549 371.058402,43.2105122 C371.456598,43.0679521 371.854794,42.9966721 372.25299,42.9966721 C373.158149,42.9966721 373.880801,43.2927584 374.424633,43.8849311 C374.966622,44.4752761 375.237617,45.3452582 375.237617,46.4930497 L375.237617,47.1930563 C375.237617,47.4068965 375.20259,47.6591182 375.127007,47.946066 C373.609806,48.5912418 372.037301,49.0847191 370.40949,49.4246701 C368.78168,49.7664488 366.936336,49.9364243 364.873459,49.9364243 C362.412387,49.9364243 360.133821,49.4959501 358.035918,48.6186572 C355.936171,47.7395367 354.120324,46.5113267 352.582844,44.9321995 C351.043522,43.3549 349.84156,41.4723757 348.973271,39.2846266 C348.104983,37.0968775 347.67176,34.7117375 347.67176,32.1292066 C347.67176,29.6179557 348.104983,27.2693696 348.973271,25.0816205 C349.84156,22.8938714 351.043522,20.9912425 352.582844,19.3773891 C354.120324,17.7653635 355.936171,16.5005996 358.035918,15.5849251 C360.133821,14.6710784 362.412387,14.214155 364.873459,14.214155 Z M340.724346,42.9422068 C341.701401,42.9422068 342.542037,43.2821578 343.248098,43.9638875 C343.952315,44.6456171 344.306267,45.4699069 344.306267,46.4385845 C344.306267,47.3725358 343.952315,48.1785487 343.248098,48.8602783 C342.542037,49.5401803 341.701401,49.881959 340.724346,49.881959 C339.784161,49.881959 338.971177,49.5401803 338.285395,48.8602783 C337.595926,48.1785487 337.251192,47.3725358 337.251192,46.4385845 C337.251192,45.4699069 337.595926,44.6456171 338.285395,43.9638875 C338.971177,43.2821578 339.784161,42.9422068 340.724346,42.9422068 Z M461.136977,42.9422068 C462.114032,42.9422068 462.954668,43.2821578 463.660729,43.9638875 C464.364946,44.6456171 464.718898,45.4699069 464.718898,46.4385845 C464.718898,47.3725358 464.364946,48.1785487 463.660729,48.8602783 C462.954668,49.5401803 462.114032,49.881959 461.136977,49.881959 C460.196792,49.881959 459.381965,49.5401803 458.696183,48.8602783 C458.006714,48.1785487 457.663823,47.3725358 457.663823,46.4385845 C457.663823,45.4699069 458.006714,44.6456171 458.696183,43.9638875 C459.381965,43.2821578 460.196792,42.9422068 461.136977,42.9422068 Z M482.928991,14.2653304 C483.79728,14.2653304 484.512558,14.3292997 485.072982,14.4554106 C485.633406,14.5796937 486.105342,14.7770846 486.485103,15.0457556 C486.864864,15.3144265 487.180102,15.6562052 487.434505,16.0692639 C487.687065,16.480495 487.923033,16.9922491 488.138722,17.6008711 L499.013529,49.0737529 C498.580307,49.2546946 498.080718,49.4155316 497.520294,49.5580917 C496.95987,49.7024795 496.44369,49.7737595 495.973598,49.7737595 C495.142179,49.7737595 494.417684,49.6750641 493.803798,49.4776732 C493.188069,49.28211 492.736411,48.7703558 492.446982,47.9442383 L489.829212,40.2514765 L475.988213,40.2514765 L473.399939,47.9442383 C473.11051,48.7338019 472.695722,49.2364176 472.15189,49.4502578 C471.609901,49.6659256 470.938867,49.7737595 470.144318,49.7737595 C469.637356,49.7737595 469.067714,49.7207564 468.435394,49.6129225 C467.80123,49.5050886 467.303485,49.3424239 466.942159,49.1285837 L478.96731,14.7496692 C479.654935,14.5705553 480.333343,14.4462721 481.002534,14.3731644 C481.671724,14.3018843 482.313262,14.2653304 482.928991,14.2653304 Z M446.293852,14.3746265 C447.012817,14.3746265 447.757591,14.4276296 448.515269,14.5354635 C449.274791,14.6432975 449.907112,14.7694083 450.412231,14.9119684 L453.811645,49.1282182 C453.450319,49.272606 453.022627,49.4060276 452.535943,49.5321385 C452.047416,49.6582493 451.496209,49.7203909 450.882323,49.7203909 C450.049061,49.7203909 449.363279,49.5760031 448.819447,49.2908829 C448.277458,49.003935 447.971437,48.4665931 447.897697,47.6770296 L445.591478,20.0221994 L438.964096,44.502326 C438.67651,45.5057297 438.176921,46.1965978 437.472704,46.5731027 C436.766644,46.9496076 435.870702,47.13786 434.784881,47.13786 C434.241048,47.13786 433.671407,47.1031338 433.074113,47.0300261 C432.476819,46.958746 431.97723,46.8509121 431.579034,46.708352 L424.103642,20.0221994 L421.57989,47.7300327 C421.50615,48.4830424 421.198285,49.003935 420.656296,49.2908829 C420.114307,49.5760031 419.461708,49.7203909 418.702186,49.7203909 C418.086457,49.7203909 417.553686,49.6582493 417.100185,49.5321385 C416.648527,49.4060276 416.259549,49.272606 415.933249,49.1282182 L419.522544,15.0728054 C420.029506,14.8589653 420.685792,14.6889898 421.498776,14.5628789 C422.309916,14.4367681 423.003072,14.3746265 423.580088,14.3746265 C425.200524,14.3746265 426.435669,14.6158821 427.281836,15.1002208 C428.129846,15.5845596 428.699487,16.4362648 428.987073,17.6553363 L434.954483,41.0589514 L440.980885,17.818001 C441.266627,16.5989295 441.84733,15.7179812 442.711931,15.1806393 C443.582063,14.6432975 444.774808,14.3746265 446.293852,14.3746265 Z M395.098012,19.2171004 C393.578968,19.2171004 392.150255,19.5314637 390.811874,20.1583626 C389.473493,20.7870891 388.306557,21.664382 387.311067,22.7938966 C386.315577,23.9252388 385.528403,25.2612828 384.949544,26.8038561 C384.372528,28.3446017 384.083099,30.0315628 384.083099,31.8592563 C384.083099,33.7253313 384.363311,35.4470186 384.923735,37.0243181 C385.482315,38.6034452 386.260272,39.9669046 387.255762,41.1146961 C388.251252,42.2624876 389.418188,43.1580574 390.756569,43.8032332 C392.093106,44.448409 393.525506,44.7719108 395.04455,44.7719108 C396.561751,44.7719108 397.992307,44.4410982 399.330688,43.7758178 C400.669069,43.1141928 401.843378,42.2076568 402.857303,41.0598653 C403.871228,39.9120738 404.66762,38.5504421 405.244636,36.971315 C405.825338,35.3940155 406.114768,33.7070544 406.114768,31.9140871 C406.114768,30.1211198 405.834556,28.4432971 405.274132,26.8842746 C404.710021,25.3234244 403.932064,23.9782419 402.938417,22.8487274 C401.942927,21.7192128 400.775992,20.8309538 399.439454,20.185778 C398.09923,19.5387745 396.653926,19.2171004 395.098012,19.2171004 Z M482.976922,19.485223 L477.726634,35.0864147 L488.168218,35.0864147 L482.976922,19.485223 Z" id="path-5"></path>
    </defs>
    <g id="Brand/Logo/Border/Sky-News-Relfection" stroke="none" stroke-width="1" fill="none" fill-rule="evenodd">
        <g id="Logo">
            <mask id="mask-2" fill="white">
                <use xlink:href="#path-1"></use>
            </mask>
            <rect stroke="#A1A6A9" x="0.5" y="0.5" width="562" height="79" rx="6"></rect>
            <g id="News" mask="url(#mask-2)">
                <g transform="translate(133.000000, 0.000000)">
                    <mask id="mask-4" fill="white">
                        <use xlink:href="#path-3"></use>
                    </mask>
                    <use id="Fill" stroke="none" fill="#A90000" fill-rule="evenodd" xlink:href="#path-3"></use>
                    <polygon id="Reflection" stroke="none" fill="#C90000" fill-rule="evenodd" mask="url(#mask-4)" points="-133 0 430 0 430 28 -133 48"></polygon>
                    <path d="M172.903854,59.372123 C168.071819,59.372123 162.070506,58.2820843 158.564514,56.8827104 C158.173525,53.7709446 159.187883,52.1358866 160.823767,52.1358866 C162.538955,52.1358866 166.902541,54.159455 173.058774,54.159455 C179.605997,54.159455 182.099475,51.7473762 182.099475,48.6356104 C182.099475,46.5347082 181.164421,44.7449825 175.244256,43.1099245 L168.540268,41.242865 C161.369676,39.2984717 158.48521,35.7190204 158.48521,31.2060394 C158.48521,25.7595286 162.85064,20.7015283 172.826394,20.7015283 C177.3449,20.7015283 182.957069,21.7915669 186.309984,23.1136071 C186.619825,26.148039 185.684771,27.783097 184.126347,27.783097 C182.567924,27.783097 178.436718,25.9141963 172.903854,25.9141963 C166.825081,25.9141963 164.565828,28.0942736 164.565828,30.9721966 C164.565828,32.8392561 165.421577,34.5516479 170.876981,36.1075308 L177.658429,37.9745903 C185.138861,40.1528264 188.257553,43.6549438 188.257553,48.4791015 C188.257553,54.2367888 183.657898,59.372123 172.903854,59.372123 L172.903854,59.372123 Z M143.601805,56.2603572 C142.978435,58.3612594 141.420012,58.9062788 139.238219,58.9062788 C137.99148,58.9062788 136.746586,58.672436 135.652923,58.3612594 L126.066313,28.0150985 L117.025613,56.2603572 C116.326628,58.4385933 114.690744,58.9062788 112.662027,58.9062788 C111.415289,58.9062788 110.09109,58.672436 109.00296,58.3612594 L98.4019918,22.1027435 C99.2577415,21.635058 100.816165,21.1692138 102.219668,21.1692138 C103.857396,21.1692138 104.790606,21.7215982 105.259055,23.3566562 L112.896252,51.9996317 L112.973712,51.9996317 L122.403557,22.1119499 C123.417916,21.5669306 124.821419,21.1728963 126.223078,21.1728963 C128.561635,21.1728963 129.808374,21.8026146 130.509203,23.982692 L139.238219,51.9996317 L139.335966,51.9996317 L146.720496,23.3566562 C147.188945,21.7215982 148.044695,21.1728963 149.759883,21.1728963 C151.163386,21.1728963 152.721809,21.6387406 153.577559,22.1045848 L143.601805,56.2603572 Z M94.5400525,42.6661757 L65.5478435,42.6661757 C66.4828976,50 71.549157,53.9366599 79.0314339,53.9366599 C82.2257409,53.9366599 84.7210627,53.1927822 87.0577757,52.4139201 C88.6161991,51.8689008 89.4737931,51.5356288 90.0990068,51.5356288 C91.6555859,51.5356288 92.8248646,53.0031302 92.4357198,56.3487387 C89.1621084,57.8272878 84.095849,59.3776468 78.7990536,59.3776468 C67.1837271,59.3776468 59.2348453,51.517216 59.2348453,39.9226662 C59.2348453,28.7958019 67.5747162,20.7033695 77.7828508,20.7033695 C89.2395685,20.7033695 94.8517372,29.895047 94.8517372,38.7663414 C94.8517372,39.9318726 94.7724328,41.3330878 94.5400525,42.6661757 L94.5400525,42.6661757 Z M37.9499163,20.7015283 C45.5871134,20.7015283 52.0845404,25.6030197 52.0845404,36.5752164 L52.0845404,56.5715338 C52.0845404,58.0500829 51.3025622,58.9062788 48.8865448,58.9062788 C47.8721863,58.9062788 46.743482,58.7497698 46.0758497,58.5932609 L46.0758497,37.3522372 C46.0758497,29.7274903 42.1548932,26.0707052 36.6220289,26.0707052 C32.1791389,26.0707052 27.3784569,29.182471 25.37556,32.7619223 L25.37556,56.5715338 C25.37556,58.0500829 24.5917376,58.9062788 22.1757202,58.9062788 C21.0839016,58.9062788 20.0326574,58.7497698 19.3650251,58.5932609 L19.3650251,21.5577242 C20.0326574,21.4012152 21.0839016,21.1692138 22.1757202,21.1692138 C24.5917376,21.1692138 25.37556,22.1027435 25.37556,23.5021175 L25.37556,26.6930584 C28.7137215,23.4247836 32.3395919,20.7015283 37.9499163,20.7015283 Z M77.7826664,25.8955993 C84.4866537,25.8955993 88.6160147,31.3329037 88.8502393,37.3336402 L88.8502393,37.3336402 L65.5476591,37.3336402 C66.5601733,29.9998159 71.858813,25.8955993 77.7826664,25.8955993 Z" id="News" stroke="none" fill="#FFFFFF" fill-rule="evenodd" mask="url(#mask-4)"></path>
                </g>
            </g>
            <g id="Sky-.com.au" mask="url(#mask-2)">
                <g transform="translate(17.000000, 8.000000)">
                    <mask id="mask-6" fill="white">
                        <use xlink:href="#path-5"></use>
                    </mask>
                    <use id="Sky" stroke="none" fill="#000000" fill-rule="evenodd" xlink:href="#path-5"></use>
                    <polygon id="Reflection" stroke="none" fill="#404446" fill-rule="evenodd" mask="url(#mask-6)" points="-17 -8 546 -8 546 20 -17 40"></polygon>
                </g>
            </g>
        </g>
    </g>
</svg>